<?xml version="1.0" ?><!DOCTYPE svg  PUBLIC '-//W3C//DTD SVG 1.1//EN'  'http://www.w3.org/Graphics/SVG/1.1/DTD/svg11.dtd'><svg height="32px" id="Layer_2" style="enable-background:new 0 0 32 32;" version="1.1" viewBox="0 0 32 32" width="32px" xml:space="preserve" xmlns="http://www.w3.org/2000/svg" xmlns:xlink="http://www.w3.org/1999/xlink"><style type="text/css">
<![CDATA[
	.st0{fill:none;stroke:#545454;stroke-width:0.5;stroke-miterlimit:10;}
	.st1{fill:none;stroke:#545454;stroke-miterlimit:10;}
	.st2{fill:#545454;}
	.st3{fill:none;stroke:#545454;stroke-linecap:round;stroke-miterlimit:10;}
	.st4{fill-rule:evenodd;clip-rule:evenodd;fill:none;stroke:#545454;stroke-width:0.5;stroke-miterlimit:10;}
]]>
</style><g><path class="st2" d="M16.264,5.266c4.928,0,8.17,3.564,8.17,7.393c0,5.062-2.814,8.845-6.963,8.845   c-1.394,0-2.703-0.754-3.152-1.609c0,0-0.749,2.975-0.908,3.549c-0.56,2.027-2.202,4.057-2.329,4.223   c-0.036,0.046-0.089,0.068-0.141,0.068c-0.078,0-0.153-0.05-0.166-0.143c-0.037-0.26-0.455-2.818,0.038-4.904   c0.247-1.049,1.66-7.032,1.66-7.032s-0.412-0.824-0.412-2.043c0-1.913,1.108-3.341,2.49-3.341c1.173,0,1.739,0.882,1.739,1.938   c0,1.18-0.752,2.944-1.14,4.579c-0.324,1.369,0.688,2.486,2.037,2.486c2.445,0,4.093-3.141,4.093-6.862   c0-2.828-1.905-4.945-5.37-4.945c-3.914,0-6.354,2.92-6.354,6.181c0,1.124,0.332,1.917,0.853,2.531   c0.237,0.282,0.271,0.396,0.184,0.719c-0.061,0.238-0.203,0.808-0.262,1.037c-0.064,0.242-0.227,0.369-0.427,0.369   c-0.069,0-0.144-0.016-0.22-0.047c-1.803-0.736-2.643-2.711-2.643-4.93C7.041,9.662,10.132,5.266,16.264,5.266 M16.264,4.266   c-3.887,0-6.29,1.606-7.622,2.953c-1.652,1.672-2.601,3.898-2.601,6.108c0,2.832,1.221,5.021,3.265,5.856   c0.194,0.08,0.396,0.121,0.598,0.121c0.267,0,0.515-0.07,0.727-0.197l-0.791,3.351c-0.448,1.898-0.23,4.095-0.061,5.235   c0.083,0.616,0.569,1.041,1.162,1.041c0.366,0,0.705-0.165,0.93-0.453c0.735-0.94,1.995-2.729,2.504-4.572   c0.079-0.284,0.294-1.125,0.496-1.92c0.756,0.446,1.68,0.715,2.601,0.715c4.614,0,7.963-4.141,7.963-9.845   C25.434,8.533,22.004,4.266,16.264,4.266L16.264,4.266z M11.4,15.844c-0.064-0.105-0.142-0.206-0.227-0.308   c-0.423-0.499-0.618-1.097-0.618-1.888c0-2.575,1.839-5.181,5.354-5.181c2.736,0,4.37,1.475,4.37,3.945   c0,3.287-1.358,5.862-3.093,5.862c-0.373,0-0.701-0.146-0.902-0.399c-0.184-0.232-0.239-0.528-0.162-0.855   c0.133-0.56,0.316-1.154,0.494-1.729c0.346-1.12,0.673-2.178,0.673-3.082c0-1.73-1.126-2.938-2.739-2.938   c-1.957,0-3.49,1.907-3.49,4.341c0,0.953,0.211,1.705,0.365,2.126L11.4,15.844L11.4,15.844z"/></g></svg>